<svg width="77" height="18" viewBox="0 0 223 58" fill="none" xmlns="http://www.w3.org/2000/svg"><path fill-rule="evenodd" clip-rule="evenodd" d="M9.84355 0.820312H0.848633V57.2772H27.1414C47.4659 57.2772 60.0477 47.7602 60.0477 29.0487C60.0477 10.5793 47.5465 0.820312 27.1414 0.820312H18.2677V8.32101H27.1414C41.9008 8.32101 51.0146 16.225 51.0146 29.0487C51.0146 41.8725 41.9008 49.7765 27.1414 49.7765H9.84355V8.4314V8.32101V0.820312ZM124.354 57.2772H88.4973V49.7765H124.354V57.2772ZM71.1236 57.2772H80.0731V49.7765L79.906 30.9504H124.354V23.4837H79.9896L80.0731 8.32101H124.354V0.820312H71.1236V57.2772ZM136.594 57.2772H145.627V0.820312H136.594V57.2772ZM168.487 57.2772H159.454V0.820312H168.648L205.189 37.7961V48.8033L168.487 11.8697V57.2772ZM214.08 57.2772H222.766V0.820312H214.08V35.0702V46.3138V57.2772Z" fill="#EFEFEF"></path></svg>