<svg width="324" height="60" viewBox="0 0 324 60" fill="none" xmlns="http://www.w3.org/2000/svg">
<g clip-path="url(#clip0_802_149)">
<path d="M12.8064 41.9685L39.6077 15.187H47.5203C50.3559 15.187 52.6568 17.4879 52.6568 20.3235V59.7579H40.05V33.3098L13.2454 59.7579H5.33607C2.50046 59.7579 0.199618 57.4571 0.199618 54.6215L0.199615 33.2323H12.8064L12.8064 41.9685Z" fill="white"/>
<path d="M93.5602 15.1506L81.8646 48.9865L69.7596 15.1506H56.1823L72.6678 59.7579H90.5629L107.048 15.1506H93.5602Z" fill="white"/>
<path d="M193.536 25.4137H179.606C174.671 25.4137 173.7 26.4733 173.7 32.5539V59.7579H161.093V27.7938C161.093 19.1549 164.708 15.187 173.7 15.187H193.536V25.4137Z" fill="white"/>
<path d="M323.575 25.4137H309.644C304.709 25.4137 303.739 26.4733 303.739 32.5539V59.7579H291.132V27.7938C291.132 19.1549 294.747 15.187 303.739 15.187H323.575V25.4137Z" fill="white"/>
<path d="M223.246 49.4421C220.512 49.4421 218.486 48.6499 218.486 44.7711V25.4137H231.71V15.187H218.486V0.338867H205.968V15.187H197.065V25.4137H205.968V41.952C205.968 53.7632 209.229 59.758 221.483 59.758H233.915V49.4421H223.246Z" fill="white"/>
<path d="M140.287 48.9338C138.082 49.9803 134.909 50.3269 131.47 50.3269C127.944 50.3269 123.712 49.4554 121.243 47.6266C118.688 45.8869 117.011 43.2725 116.394 39.8757H156.947C157.036 38.7434 157.122 38.7434 157.122 37.4362C157.122 22.4593 145.925 15.1475 131.47 15.1475C117.014 15.1475 104.668 22.3735 104.668 37.4362C104.668 52.499 117.011 59.725 131.47 59.725C137.553 59.725 143.017 58.9426 147.602 56.5032C152.18 54.1561 155.963 50.2476 157.116 43.9096H145.308C144.185 46.4052 142.234 47.9633 140.28 48.9305L140.287 48.9338ZM120.804 27.5165C123.626 25.0771 128.297 24.0339 131.559 24.0339C135.084 24.0339 138.788 24.8163 140.993 26.2984C143.198 27.7773 144.519 29.7811 145.489 32.9171H117.334C118.08 30.745 119.246 28.9129 120.804 27.5198V27.5165Z" fill="white"/>
<path d="M270.325 48.9338C268.12 49.9803 264.948 50.3269 261.508 50.3269C257.983 50.3269 253.751 49.4554 251.282 47.6266C248.727 45.8869 247.05 43.2725 246.432 39.8757H286.986C287.075 38.7434 287.161 38.7434 287.161 37.4362C287.161 22.4593 275.964 15.1475 261.508 15.1475C247.053 15.1475 234.707 22.3735 234.707 37.4362C234.707 52.499 247.05 59.725 261.508 59.725C267.592 59.725 273.055 58.9426 277.641 56.5032C282.219 54.1561 286.002 50.2476 287.154 43.9096H275.346C274.224 46.4052 272.273 47.9633 270.319 48.9305L270.325 48.9338ZM250.843 27.5165C253.665 25.0771 258.336 24.0339 261.597 24.0339C265.123 24.0339 268.827 24.8163 271.032 26.2984C273.237 27.7773 274.557 29.7811 275.528 32.9171H247.373C248.119 30.745 249.284 28.9129 250.843 27.5198V27.5165Z" fill="white"/>
<rect x="0.199615" y="15.187" width="12.6068" height="12.6068" fill="white"/>
</g>
<defs>
<clipPath id="clip0_802_149">
<rect width="323.375" height="59.4191" fill="white" transform="translate(0.199615 0.338867)"/>
</clipPath>
</defs>
</svg>
